<svg xmlns="http://www.w3.org/2000/svg" viewBox="0 0 84.11 27.72"><defs><style>.cls-1{fill:#fff;}</style></defs><title>Ресурс 2</title><g id="Слой_2" data-name="Слой 2"><g id="Слой_1-2" data-name="Слой 1"><path class="cls-1" d="M22.06,12.5A9.75,9.75,0,0,1,17.16,15a5.13,5.13,0,0,1,2.64,1.55A3.81,3.81,0,0,1,20.69,19a5.73,5.73,0,0,1-1.38,3.84,8.83,8.83,0,0,1-4,2.5,20.4,20.4,0,0,1-6.41.89,21.93,21.93,0,0,1-2.24-.09,1.36,1.36,0,0,1-.67,1.18,3.16,3.16,0,0,1-1.66.39,1.73,1.73,0,0,1-1.38-.45A1.8,1.8,0,0,1,2.58,26a76.34,76.34,0,0,1,1-8.22A81.13,81.13,0,0,1,5.4,9.44a1.44,1.44,0,0,1,.79-1,3.53,3.53,0,0,1,1.54-.28c1.14,0,1.71.31,1.71,1a2.89,2.89,0,0,1-.17.89A49.28,49.28,0,0,0,7.81,16a70.64,70.64,0,0,0-1,7.12c.89.08,1.62.11,2.18.11,2.61,0,4.53-.37,5.75-1.13a3.34,3.34,0,0,0,1.84-2.9,2.56,2.56,0,0,0-1.05-2.07A6,6,0,0,0,12,16.16a1.13,1.13,0,0,1-.78-.28,1.22,1.22,0,0,1-.22-.82,2.33,2.33,0,0,1,.33-1.31,1.41,1.41,0,0,1,1.23-.53,12.79,12.79,0,0,0,3.6-.59,6.17,6.17,0,0,0,2.54-1.5,3.18,3.18,0,0,0,.92-2.25A2.86,2.86,0,0,0,18,6.31a10,10,0,0,0-4.9-.93,21.45,21.45,0,0,0-5.79.77A19,19,0,0,0,2.55,8.09,3.08,3.08,0,0,1,1,8.62a.88.88,0,0,1-.77-.35A1.38,1.38,0,0,1,0,7.39a2.4,2.4,0,0,1,.29-1.2A3.93,3.93,0,0,1,1.71,5a20.54,20.54,0,0,1,5.51-2.1,28,28,0,0,1,6.47-.76q5.07,0,7.56,1.71A5.23,5.23,0,0,1,23.74,8.4,5.66,5.66,0,0,1,22.06,12.5Z"/><path class="cls-1" d="M23.87,25.34a10.73,10.73,0,0,1-.43-3.58,22.81,22.81,0,0,1,1-6.92,2.13,2.13,0,0,1,.83-1.19,2.92,2.92,0,0,1,1.61-.38,1.61,1.61,0,0,1,.78.14.58.58,0,0,1,.23.53,10.74,10.74,0,0,1-.42,2c-.19.75-.34,1.4-.45,2A19.38,19.38,0,0,0,26.77,20a15.7,15.7,0,0,1,2.07-3.92,8.23,8.23,0,0,1,2.25-2.15,4.13,4.13,0,0,1,2-.65,1.61,1.61,0,0,1,1.82,1.82,13.77,13.77,0,0,1-.25,1.77,9.72,9.72,0,0,0-.22,1.4c0,.65.23,1,.7,1a3.34,3.34,0,0,0,2-1.24,1.1,1.1,0,0,1,.76-.36.66.66,0,0,1,.57.32,1.56,1.56,0,0,1,.21.86,2.22,2.22,0,0,1-.56,1.62,7.75,7.75,0,0,1-1.83,1.39,4.6,4.6,0,0,1-2.23.57,3,3,0,0,1-2.25-.76,2.73,2.73,0,0,1-.77-2,4.78,4.78,0,0,1,.08-.84c0-.37.06-.63.06-.76,0-.29-.1-.44-.31-.44s-.65.31-1.1.93A13.51,13.51,0,0,0,28.45,21a20,20,0,0,0-1.09,3.25A4.44,4.44,0,0,1,26.64,26a1.59,1.59,0,0,1-1.27.46A1.53,1.53,0,0,1,23.87,25.34Z"/><path class="cls-1" d="M36.79,25.2a5,5,0,0,1-1-3.3,9.13,9.13,0,0,1,1-4.25,8.93,8.93,0,0,1,2.76-3.22,6.23,6.23,0,0,1,3.65-1.21,1.14,1.14,0,0,1,.83.23,2,2,0,0,1,.35.86,6.12,6.12,0,0,1,1.23-.11c.92,0,1.37.32,1.37,1a21.18,21.18,0,0,1-.42,2.8,26.87,26.87,0,0,0-.64,4.48,1,1,0,0,0,.21.67.67.67,0,0,0,.55.25A2.11,2.11,0,0,0,48,22.69a22.89,22.89,0,0,0,2-2.22,1,1,0,0,1,.75-.39.65.65,0,0,1,.58.33,1.76,1.76,0,0,1,.21.93A2.59,2.59,0,0,1,51,23.07a14.21,14.21,0,0,1-2.44,2.41,4.18,4.18,0,0,1-2.49,1,2.64,2.64,0,0,1-1.7-.63,3.83,3.83,0,0,1-1.16-1.72,4.25,4.25,0,0,1-3.67,2.35A3.41,3.41,0,0,1,36.79,25.2Zm5-2.3A4.77,4.77,0,0,0,42.56,21l1-5.15a3.37,3.37,0,0,0-2.17.88A5.94,5.94,0,0,0,39.84,19a7.58,7.58,0,0,0-.58,3,2,2,0,0,0,.35,1.29,1.17,1.17,0,0,0,1,.42A1.54,1.54,0,0,0,41.75,22.9Z"/><path class="cls-1" d="M49.77,25.34a10.73,10.73,0,0,1-.43-3.58,22.81,22.81,0,0,1,1-6.92,2.08,2.08,0,0,1,.83-1.19,2.92,2.92,0,0,1,1.61-.38,1.61,1.61,0,0,1,.78.14.58.58,0,0,1,.23.53,10.74,10.74,0,0,1-.42,2c-.19.75-.34,1.4-.45,2A19.38,19.38,0,0,0,52.67,20a15.7,15.7,0,0,1,2.07-3.92A8.09,8.09,0,0,1,57,13.92a4.13,4.13,0,0,1,2-.65,1.61,1.61,0,0,1,1.82,1.82A22.31,22.31,0,0,1,60.23,19a18.75,18.75,0,0,0-.53,3.22c0,.75.27,1.12.81,1.12a2.21,2.21,0,0,0,1.33-.69,22.72,22.72,0,0,0,2.06-2.22,1,1,0,0,1,.75-.39.66.66,0,0,1,.58.33,1.76,1.76,0,0,1,.21.93,2.54,2.54,0,0,1-.54,1.73,12.33,12.33,0,0,1-2.59,2.44,5.45,5.45,0,0,1-3.15.95A2.71,2.71,0,0,1,57,25.63a3.47,3.47,0,0,1-.73-2.39,17.55,17.55,0,0,1,.39-2.8A15.06,15.06,0,0,0,57,18c0-.29-.11-.44-.31-.44s-.59.31-1,.93A15.63,15.63,0,0,0,54.36,21a19.11,19.11,0,0,0-1.1,3.25A4.44,4.44,0,0,1,52.54,26a1.59,1.59,0,0,1-1.27.46A1.53,1.53,0,0,1,49.77,25.34Z"/><path class="cls-1" d="M79.64,20.41a1.76,1.76,0,0,1,.21.93,2.54,2.54,0,0,1-.53,1.73,13.25,13.25,0,0,1-2.52,2.4,4.62,4.62,0,0,1-2.71,1c-1.42,0-2.51-.83-3.25-2.49a8.19,8.19,0,0,1-2.06,2,4.13,4.13,0,0,1-2.06.5,3.55,3.55,0,0,1-2.81-1.27,4.88,4.88,0,0,1-1.11-3.32,9.27,9.27,0,0,1,1-4.16,8.63,8.63,0,0,1,2.62-3.14,7.64,7.64,0,0,1,3.74-1.44,35.39,35.39,0,0,1,2-9.28Q73.64,0,76.07,0a2.4,2.4,0,0,1,2,1.09,5.63,5.63,0,0,1,.79,3.31,21.68,21.68,0,0,1-1.54,7.33,53.71,53.71,0,0,1-4.11,8.63,6.07,6.07,0,0,0,.49,2.32,1.1,1.1,0,0,0,1,.7,2.36,2.36,0,0,0,1.54-.67,19.71,19.71,0,0,0,2.1-2.24,1,1,0,0,1,.76-.39A.65.65,0,0,1,79.64,20.41ZM68.77,23.2a8.49,8.49,0,0,0,1.34-1.61,18.44,18.44,0,0,1-.28-3.39c0-.45,0-1.18.06-2.18a4.7,4.7,0,0,0-2.57,2.05,6.38,6.38,0,0,0-1,3.52c0,1.36.47,2,1.4,2A1.69,1.69,0,0,0,68.77,23.2ZM74.7,4.63a34.88,34.88,0,0,0-.91,5q-.37,3-.54,6.38,3.14-6.83,3.13-11a5.88,5.88,0,0,0-.18-1.65c-.12-.39-.27-.59-.43-.59C75.41,2.74,75.06,3.37,74.7,4.63Z"/><path class="cls-1" d="M77.53,26.1A1.7,1.7,0,0,1,77.2,25a7.83,7.83,0,0,1,0-.79,60.42,60.42,0,0,1,1.49-9.32,2,2,0,0,1,.74-1.22,3.06,3.06,0,0,1,1.66-.35c.81,0,1.21.33,1.21,1a4.13,4.13,0,0,1-.06.53,72.56,72.56,0,0,0-1.51,10.06,1.69,1.69,0,0,1-.53,1.26,2.48,2.48,0,0,1-1.49.36A1.67,1.67,0,0,1,77.53,26.1Zm2.16-15.22a2,2,0,0,1-.59-1.53,2.09,2.09,0,0,1,.77-1.64,2.88,2.88,0,0,1,1.92-.65,2.62,2.62,0,0,1,1.68.5A1.71,1.71,0,0,1,84.11,9a2.28,2.28,0,0,1-.73,1.78,2.8,2.8,0,0,1-1.93.65A2.52,2.52,0,0,1,79.69,10.88Z"/></g></g></svg>